<?xml version="1.0" encoding="utf-8"?>
<!-- Generator: Adobe Illustrator 16.0.4, SVG Export Plug-In . SVG Version: 6.00 Build 0)  -->
<!DOCTYPE svg PUBLIC "-//W3C//DTD SVG 1.1//EN" "http://www.w3.org/Graphics/SVG/1.1/DTD/svg11.dtd">
<svg version="1.1" id="Layer_1" xmlns="http://www.w3.org/2000/svg" xmlns:xlink="http://www.w3.org/1999/xlink" x="0px" y="0px"
	 width="850.395px" height="311px" viewBox="0 0 850.395 311" enable-background="new 0 0 850.395 311" xml:space="preserve">
<defs>
	<style type="text/css"><![CDATA[
		#Layer_2 {
			font-family: 'sinkin_sans900_x_black_italic';
		}
	]]></style>
</defs>
<g id="Layer_1_1_" xmlns:sketch="http://www.bohemiancoding.com/sketch/ns">
	<title>logo</title>
	<desc>Sonex in Europe</desc>
	<g id="Page-1" sketch:type="MSPage">
		<g id="logo" sketch:type="MSLayerGroup">
			<g id="Background_rectangle" sketch:type="MSShapeGroup">
				<rect id="Rectangle-path" x="0" y="0.666" fill="#FFFFFF" width="377" height="310.334"/>
			</g>
			<g id="Globe" transform="translate(17.000000, 18.000000)" sketch:type="MSShapeGroup">
				<circle id="Oval" fill="#333694" cx="136.971" cy="137.362" r="136"/>
			</g>
			<g id="Europe" transform="translate(48.000000, 44.000000)" sketch:type="MSShapeGroup">
				<path id="Iceland_x3F__2_" fill="#FFFFFF" d="M27.102,11.544c-0.003,0.999-0.005,2-0.009,3c1.515-0.029,2.52-2.005,3.997-2.008
					c0.011,5.756,2.979-2.399,2.989,2.994c1.377-0.002,6.971-2.281,7.034,1.001c3.891,0.062,0.878,10.053-4.013,9.992
					c0.011-0.676-8.894,1.021-11.014,1.007c0.06-2.083-6.075-5.647-5.969-7.942c5.774-0.099,0.007-4.908,0.003-6.016
					c3.41,0.013,4.958,3.089,4.948-1.995c-1.646-0.01-2.942-0.507-2.973-2.009c4.053-0.032,2.492-1.961,4.996-2.01
					C27.096,8.339,30.355,11.632,27.102,11.544C27.098,12.544,27.185,11.546,27.102,11.544L27.102,11.544z"/>
				<path id="UK_2_" fill="#FFFFFF" d="M49.193,67.5c0.063-2.955,6.971-2.229,7.043,1.006c-4.649,0.009,0.982,0.963-5.019,1.01
					c-0.037,1.664,0.003,1.27,0.006,2.938c9.782,0.137,3.831,7.996,0.06,8.083c-0.019,0.423,4.879,4.962,4.937,4.962
					c0.019,3.458,4.427,10.042,1.035,9.999c0.001,0.974,1.014,1.967,1.988,2.012c0.006,2.953-1.917,1.846-1.978,3.957
					c5.74-0.011,0.55-0.97,4.998-0.979c0.003,1.567,3.688,4.951-0.99,5.001c0.066,2-2.964,2.024-2.96,4.006
					c4.166,0.029,0.961,1.531,0.99,2.998c-1.032-0.353-1.365-0.009-0.998,1.032c-5.893-0.045-0.443-2.013-5.003-2.005
					c-0.055,3.389-10.957-3.51-11.015,1.005c-2.097-0.058,0.074-0.948-2.019-1.042c0.044-2.563-3.775,0.042-4.983,0.026
					c-0.014-6.242,14.098-0.547,13.971-7.012c-3.264,0.035-1.688,2.032-4.997,2.01c0.069-2.456-3.522-2.975-5.975-2.988
					c0.036-2.354,2.913-0.912,3.011-2.99c4.215-0.009,1.932-2.167,1.96-4.02c4.367-0.009-0.655-0.966,5.014-1.01
					c-0.019-1.739,2.943-3.975,0.96-3.971c-0.006-3.075,0.963-2.673,0.959-5.001c-1.979-0.027-3.921-1.701-3.969,0.008
					c-1.001-0.015-2.002-1.026-2.004-2.043c2.134-0.004-0.104-1.022,2.015-0.988c-0.045-5.586-0.879-1.999-2.988-1.994
					c-0.005-2.143,5.472-5.979,0.974-5.971c-0.017-0.838,4.213-7.02,4.985-7.056"/>
				<path id="Ireland_2_" fill="#FFFFFF" d="M23.249,100.566c-0.004-1.616,0.107-3-1.991-2.996
					c-0.005-2.509,1.042,0.782,0.979-3.001c3.074,0.048,1.547-1.989,5.026-2.026c-0.052-2.665-1.049,1.109-1.021-2.998
					c-2.28,0.004,1.005-3.007,0.989-4.986c0.946,0.015,1.999,0.953,2.021,1.934c3.342,0.073,1.627-1.956,4.965-1.964
					c-0.021-1.033-4.205-2.975,1.01-2.985c0.048,2.436,4.929-1.765,5.004,1.974c2.218,0.062,3.278,6.056-1.973,6.035
					c-0.029,4.129-3.012,6.062-2.964,9.959C31.869,99.616,27.412,100.599,23.249,100.566
					C23.249,100.24,23.499,100.569,23.249,100.566L23.249,100.566z"/>
				<path id="Mainland_2_" fill="#FFFFFF" d="M172.238,11.272c3.396,0.052,5.006,3.283,5.046,6.959
					c-3.775,0.007-0.516-0.968-3.019-0.964c-0.007-3.44-2.646,0.981-2.981,0.975c-0.065,2.094-2.93,4.743-3.032,7.022
					c1.045,0.046,6.021,4.051,6.024,4.972c-1.707,0.01-8.92,1.259-9.002-0.951c-2.083,0.004,0.135-0.955-2.002-1.011
					c0.024,3.14,1.005,2.64,1.011,5.013c4.121-0.008,3.062-1.179,3.021,3.011c-1.494-0.024-3.007-3.205-2.999,0.974
					c-1.329-0.021-2.012-2.664-1.993-3.934c-3.066-0.047-4.266-6.069-6.026-6.035c-0.115-3.111-7.048-2.301-7.013-5.986
					c4.702,0.019,4.229,1.992,10.003,1.981c0.006,2.285,5.909-0.995,6.998-1.03c0.021-1.82,2.021-1.167,1.994-2.989
					c4.395-0.008-1.002-5.439-0.996-5.982c-3.444-0.054-4.403-2.995-9.006-3.014c-0.177-3.599-11.48-1.948-14.021-1.972
					c0.021-2.176,0.983,0.196,0.98-2.002c-1.702,0.003-7.936,4.696-8,0.032c0.96-0.019,5.37-3.011,2.01-3.004
					c-0.042-3.003-3.312,1.007-3.98,1.008c-0.075-3.821,0.968-0.496,0.963-3.017c-3.781,0.041-4.981,9.14-4.996,2.025
					c-5.997,0.012-1.442,5.942-5.004,6.01c0.082-6.422-5.926,3.094-4.933,3.025c0.64-2.319-0.367-2.987-3.02-2.004
					c0.006,3.584-2.138,3.536-1.987,6.983c-7.153,0.098-2.713,10.876-10.978,11.064c-0.131,5.809-6.555,16.914-11.967,17.024
					c-0.044,2.39-1.908,2.962-4.017,2.966c0.005,2.081,0.932-0.03,0.983,1.998c-7.82,0.016-5.051,4.625-4.963,8.009
					c-2.019,0.045-2.997,1.528-2.995,3.048c2.906-0.006,1.925,0.035,3.959-0.008c0.066,2.894-1.9,1.769-1.951,3.9
					c-2.185,0.192,0.964,3.734,0.989,5.041c-7.684,0.203,2.125,7.787,2.01,5.017c4.201-0.009,3.902-4.902,8.01-4.996
					c0.079-9.444,1.562-0.083,3.979,0.013c0.027,2.683-4.963,4.988,1.009,4.977c0.351,5.268,3.018,11.519,3.078,16.926
					c1.979,0.087,3.925-2.929,4.979-2.962c-0.007-3.054,2.871-0.979,4.014-0.961c-0.12-2.581,2.988-5.835,2.936-9.021
					c0.878,0.042-1.003-5.295-0.995-5.03c2.333,0.016,3.011-0.654,3.025-2.991c2.163,0.097-0.202,0.985,2.002,1.043
					c-0.021-1.071,0.303-4.058,1.007-4.08c-0.078-2.308-1.012-2.137-1.043-5.951c-2.064-0.033,0.041,0.932-1.981,0.973
					c0.018-1.001-1.012-1.969-1.987-2.011c-0.057-6.054,1.964-2.723,1.983-7.926c-3.217-0.238,2.975-5.106,2.974-6.037
					c1.138-0.023,4.973-3.874,5.006-5.026c-1.693,0.034,2.922-9.954,2.92-10.98c2.518,0.054,4.957,1.97,7.982,1.964
					c-0.014,2.26-7.105,13.989-8.889,14.038c-0.031,1.49-1.273,8.022,1.954,7.956c0.019,1.259-2.172,4.025-0.013,4.062
					c0.035,4.364,3.995,0.196,4.073,5.93c6.304,0.098,10.405-8.492,15.983-7.927c0.021,2.506,2.889,2.866,4.924,2.928
					c0.208,1.89-10.979,8.609-10.905,4.938c-7,0.158-5.938,3.155-6.006,8.054c0.814,0.032,5.12,1.957,2.004,2.017
					c-0.054,5.446,1.929,5.371-3.928,4.987c-0.12-4.758-4.461,1.037-5.061,1.052c-0.031,2.231,0.271,10.954,0.042,10.959
					c-0.174,3.207-4.342,4.958-7.991,4.889c-0.344-5.092-6.677,1.136-8.123,1.162c0.125,4.668-9.617,0.961-9.853,0.937
					c-0.215-4.471-7.064,1.035-9.062,1.059c0.024-2.013-2.136-5.984-3.938-6.002c0.031-4.075,2.67-4.13,2.982-7.881
					c1.963-0.207-0.084,0.875,1.908,0.871c0.019-1.311-0.563-3.966-2.039-3.964c0.947-1.197,1.622-2.532,2.023-4.004
					c-5.814,0.012-12.805,13.208-5.976,12.981c0.075,2.493-0.889,3.194-0.926,6.08c2.271,0.04-2.88,8.706-3.024,2.975
					c-2.98-0.233-1.562,0.96-5.976,1.004c-2.312,0.022-3.969,3.942-4.026,6.016c-2.936-0.083-0.974-2.269-0.977-3.999
					c-0.397,0.001-8.985,9.276-8.981,9.019c-7.122,0.015-3.281,4.875-9.989,5.035c-0.066,4.989-6.979-0.985-8.986-0.981
					c0.003,2.124,0.939,3.913,0.979,5.937c-5.297,0.059-6.402-2.859-11.975-2.931c-0.032,2.146,0.931-0.073,0.973,1.951
					c-5.208,0.134,2.609,5.047,5.042,5.021c0.009,3.795-0.925,0.506-0.994,3.019c3.673,0.028,5.032,8.625,5.041,12.974
					c-2.271-0.06,0.257-1.072-2.001-0.964c-0.069,4.929-1.983,4.585-2.045,8.988c-1.391,0.002-6.033,2.335-5.985-0.988
					c-3.687,0.009-8.5-2.959-12.99-2.989c0.006-0.414-10.155-6.248-10.021-2.012c-7.405,0.188-1.046,12.975-6.921,13.087
					c-0.079,2.558-3.461,9.07-6.023,8.972c0.003,1.912,0.971,2.182,1.049,4.039c3.049-0.033-0.071,5.459-0.068,6.959
					c8.314,0.224,11.558,4.847,12.104,10.018c1.635-0.023,2.982-0.5,2.955-2.047c4.242,0.002,6.564,0.974,9.992,0.992
					c5.876,0.028,5.678-2.047,12.025-1.996c-0.006-2.887,4.445-6.036,2.968-6.067c-0.013-5.896,3.938-4.487,3.98-9.008
					c2.999,0.058,13.995-5.052,14.006-7.986c0.588-0.041,0.956-3.184,0.991-5.001c2.974-0.006,6.4-1.076,8.896-0.997
					c0.287,6.685,4.183,1.089,8.084,0.923c-0.003,0.166,9.031-6.117,8.981-2.967c5.104-0.156,3.18,8.078,5.986,7.988
					c0.064,1.357,7.277,8.947,9.062,8.998c0.003,1.958,6.018,0.79,6.023,3.957c1.953,0.014,4.944,6.76,5.004,1.99
					c1.788,0.029,1.732,6.047,3.965,5.977c0.066,3.814-2.984,4.736-2.98,7.048c3.939-0.008,2.344-5.06,7.031-5.015
					c-0.068-1.602-0.075-2.456-0.05-4.021c-4.358-0.134-1.996-2.427-1.948-5.016c3.032,0.094,4.9,2.818,6.943,2.986
					c-0.048-4.852-3.928-2.904-3.991-5.93c-1.312-0.058-3.968-0.768-4.024-2.076c-5.576-0.033-2.01-0.865-1.963-2.935
					c-6.211-0.038-12.029-4.33-12.042-10.06c-2.29-0.021-5.921-4.918-3.051-4.922c-0.006-3.291-3.396-5.994,2.021-6.004
					c0.146-5.27,5.24,3.998,4.069,3.931c-0.191-5.955,5.846,3.021,5.959,3.019c0.33,0.989-0.002,1.318-0.998,0.986
					c0.021,1.215,3.933,4.035,5.022,4.054c-0.036-1.881,6.979,4.226,6.979,4.938c4.765,0.074,6.979,6.211,7.02,9.035
					c-2.205-0.037,3.01,5.268,3.013,6.961c4.266-0.045,0.991,2.936,5.991,3.004c0.313,0.953-0.013,1.267-0.982,0.938
					c0.021,2.532,2.938,3.677,3.064,1.087c2.553-0.023,5.881,0.442,5.976,2.928c-1.437-0.006-6.029-2.188-6,0.013
					c-3.891,0.063-1.563,3.075,0.021,2.999c-0.069,2.156-0.948-0.08-1.043,2.018c1.627-0.003,3.04,4.43,3.03-0.006
					c2.827,0.044,0.438,3.971,3.009,4.01c-0.012-5.688,1.024-1.031,3.982-0.992c-0.031-2.297-4.023-3.301-3.997-6.022
					c4.077-0.044-0.05,1,3.985,0.992c-0.065-1.771-1.951-1.197-2.021-2.996c2.269,0.032-0.177-0.961,2.046-1.004
					c-0.017,1.545,1.349,2.014,2.973,2.024c-0.007-3.686-4.169-5.039-8.01-5.031c0.017-1.786,2.994-2.901,2.989-5.006
					c-2.153,0.041-6.016-6.062-2.043-5.996c0.072,3.61,1.018,0.639,1.021,3.028c3.082-0.058,2.052-2.843,1.992-4.02
					c1.622-0.003,13.021-4.554,13.028-1.025c1.47-0.028,3.042-2.271,3.009-3.959c4.77-0.009,7.782-2.016,7.959,2.985
					c-1.817-0.118-4.067,0.979-5.982,0.949c-0.005-2.256-13.21,9.024-3.986,9.006c-0.005-2.428-0.976,0.688-1.025-2.997
					c2.412-0.005,4.084,4.343,3.991,5.993c-5.846,0.094-1.01,1.002,0.979,0.998c0.119,4.088,5.094,5.453,5.097,6.947
					c-1.601,0.055-3.021,0.512-3.018,2.047c3.299-0.008,8.759-6.191,9.042-0.039c3.052,0.139,5.961,1.055,5.95-4.99
					c5.682,0.021,17.157,6.344,17.012-4.012c6.288-0.015,4.639-1.228,7.999-1.018c0.007,2.979-0.936,3.898-1.029,6.002
					c5.638,0.064,9.768-2.966,13.558-6.761c1.557-1.56,2.038-3.581,3.333-5.583c1.607-2.485,2.909-5.458,4.167-8.417
					c4.446-10.458,8.994-21.896,10.667-31.708c3.303-19.372,3.031-26.878,0.917-43.375c-1.532-11.937-4.031-20.102-7.417-29
					c-1.269-3.333-2.789-7.201-4.5-10.833c-1.711-3.633-3.862-7.281-6-11.25c-2.526-4.69-4.393-7.33-7.333-11.167
					s-6.128-8.79-10.502-13.084c-5.284-5.188-16.19-15.947-18.75-16.165C186.386,1.856,172.344,8.124,172.238,11.272L172.238,11.272
					z"/>
				<path id="IDK_2_" fill="#FFFFFF" d="M103.458,190.352c-0.042-0.938-1.055-1.941-2.021-1.924
					c0.009,4.215-1.938-0.289-1.991,4.036c4.293-0.071,7.525,5.017,12.041,4.929C111.385,186.969,112.559,190.387,103.458,190.352
					C103.443,190.032,103.875,190.352,103.458,190.352L103.458,190.352z"/>
				<path id="_x3F__x3F__x3F__4_" fill="#FFFFFF" d="M81.423,184.415c5.263,0.097,4.072-2.817,3.988-5.967
					c2.32-0.06,0.017-1.015,0.038-2c5.323-0.058-0.026-3.774-0.053-5.021c-1.875,0.036-2.726,1.048-4.998,1.052
					c0.042,3.879,0.832,0.436,1.006,2.957c-2.319,0.101,0.948,2.883,1.051,4.019C79.202,179.406,81.42,182.629,81.423,184.415
					C82.096,184.427,81.423,184.254,81.423,184.415L81.423,184.415z"/>
				<path id="_x3F__x3F__x3F__1_" fill="#FFFFFF" d="M83.417,169.475c2.09-0.019-0.124,1.012,1.984,0.969
					c0.012-1.627,1.943-3.002-0.006-3c0.016-1.008,1.003-2.002,2.012-2.002c-0.005-2.459-1.015,0.758-1.021-3.015
					c-1.756,0.035-3.979,2.343-3.978,4.056c0.999-0.361,1.327-0.028,0.986,0.998C81.08,167.484,83.384,168.439,83.417,169.475
					C83.738,169.473,83.414,169.389,83.417,169.475L83.417,169.475z"/>
				<path id="Dunno_2_" fill="#FFFFFF" d="M155.437,201.29c0.023,1.748,9.123-0.021,11.026-0.006
					c0.008,4.446-10.918,2.021-13.996,2.028C152.462,199.997,151.637,201.23,155.437,201.29
					C155.441,201.623,155.353,201.288,155.437,201.29L155.437,201.29z"/>
				<path id="Shape" fill="#FFFFFF" d="M193.505,198.214c2.505,0.076,7.906,0.349,7.896-5.015
					C199.488,193.202,193.361,195.867,193.505,198.214C193.806,198.223,193.5,198.131,193.505,198.214L193.505,198.214z"/>
				<path id="Shape_1_" fill="#FFFFFF" d="M97.257,89.42c-0.037,2.926,2.034,1.917,1.977,4.028c2.045-0.039,2.011-3.203,1.99-5.021
					C98.386,88.351,102.885,89.376,97.257,89.42C97.249,90.076,97.506,89.418,97.257,89.42L97.257,89.42z"/>
				<path id="Shape_2_" fill="#FFFFFF" d="M94.26,90.441c-0.004,0.99-0.006,1.979-0.009,2.969
					C96.575,93.406,96.577,90.396,94.26,90.441C94.255,91.431,94.343,90.44,94.26,90.441L94.26,90.441z"/>
				<path id="Shape_3_" fill="#FFFFFF" d="M54.398,176.521c-0.023,0.91,2.173,2.002,3.004,2.022
					C57.396,175.343,58.231,176.166,54.398,176.521C54.389,176.854,54.484,176.514,54.398,176.521L54.398,176.521z"/>
				<path id="Shape_4_" fill="#FFFFFF" d="M61.426,174.507c-0.739,1.979-0.071,2.636,2.004,1.966
					C63.398,175.503,62.36,174.505,61.426,174.507C61.395,175.152,61.507,174.507,61.426,174.507L61.426,174.507z"/>
				<path id="Shape_5_" fill="#FFFFFF" d="M119.22,81.361c0.002,1.004,0.975,1.954,1.982,2.059c0.096-5.327,1.187,2.171,0.987-6.022
					C119.333,77.403,121.753,81.356,119.22,81.361C119.22,81.694,119.304,81.361,119.22,81.361L119.22,81.361z"/>
				<path id="Shape_6_" fill="#FFFFFF" d="M44.177,69.51c0.042,2.2-0.959-0.144-0.955,2.002
					C45.417,71.481,46.523,69.453,44.177,69.51C44.182,69.85,44.262,69.508,44.177,69.51L44.177,69.51z"/>
				<path id="Shape_7_" fill="#FFFFFF" d="M43.189,65.511c0.003,1.958-0.933-0.015-1.059,2.003c3.625-0.007,5.062,0.259,5.056-3.01
					C43.138,64.594,47.163,65.551,43.189,65.511C43.189,65.824,43.351,65.514,43.189,65.511L43.189,65.511z"/>
				<path id="Shape_8_" fill="#FFFFFF" d="M45.218,69.488c-0.673,0.008-1.348,0.016-2.021,0.024
					c0.022,1.619,0.499,2.977,2.007,3.038C45.208,71.528,45.213,70.508,45.218,69.488C44.545,69.497,45.217,69.743,45.218,69.488
					L45.218,69.488z"/>
				<path id="Shape_9_" fill="#FFFFFF" d="M56.185,63.527c-0.641,1.874,0.014,2.539,1.962,1.996
					C58.186,64.507,57.234,63.507,56.185,63.527C56.178,64.152,56.27,63.525,56.185,63.527L56.185,63.527z"/>
				<path id="Shape_10_" fill="#FFFFFF" d="M63.157,59.43c-1.313-0.239-1.646,0.448-0.995,2.065
					c1.209,0.048,5.697-3.959,1.013-4.043C63.169,58.111,63.163,58.77,63.157,59.43C62.831,59.452,63.159,59.265,63.157,59.43
					L63.157,59.43z"/>
			</g>
			<g id="Plane" transform="translate(188.000000, 119.000000)" sketch:type="MSShapeGroup">
				<path id="Thingy" fill="#FEE63F" d="M55.069,76.234c1.823,1.765,3.646,3.526,5.47,5.291c0.569,0.552,1.42,1.053,1.513,1.863
					c0.082,0.711,0.186,0.758-0.363,1.172c-0.549,0.416-1.097,0.832-1.646,1.248c-0.129,0.098,0.254,1.449,0.29,1.644
					c0.107,0.58,0.701,0.739,1.188,1.041c0.166,0.103,0.702-0.077,0.882-0.104c0.785-0.113,1.57-0.228,2.354-0.341
					c0.753-0.11,1.506-0.219,2.259-0.329c0.329-0.047,0.844-0.021,1.149-0.166c0.765-0.359,1.529-1.348,2.158-1.9
					c1.518-1.336,3.033-2.672,4.551-4.008c-0.87-0.559-1.741-1.117-2.611-1.674c-0.824-0.529-0.854-0.67-1.746-0.395
					c-1.301,0.402-2.604,0.805-3.903,1.208c-0.23,0.071-2.038,0.825-2.211,0.661c-1.63-1.551-3.261-3.104-4.892-4.656
					c-0.154-0.146-1.361-1.528-1.561-1.465C56.992,75.627,56.03,75.932,55.069,76.234L55.069,76.234z"/>
				<g id="Left_wing_1_" transform="translate(62.000000, 64.000000)">
					<path id="Left_wing" fill="#FADF20" d="M0.273,9.955c5.972,3.988,11.941,7.979,17.913,11.968
						c10.877,7.269,21.756,14.536,32.634,21.804c3.98,2.659,7.962,5.319,11.943,7.979c1.05,0.7,2.099,1.401,3.146,2.103
						c0.401,0.27,0.593,0.493,1.062,0.451c9.956-0.888,19.91-1.775,29.865-2.664c0.543-0.048,1.1-0.693,1.517-1.002
						c1.025-0.752,2.052-1.506,3.076-2.26c-0.62-0.818-1.011-1.498-1.861-1.998c-0.962-0.564-1.921-1.129-2.88-1.693
						c-3.762-2.211-7.521-4.425-11.284-6.637c-11.153-6.562-22.312-13.125-33.469-19.688C43.039,13.086,34.142,7.854,25.247,2.619
						c-0.872-0.514-1.744-1.026-2.616-1.539c-0.567-0.333-0.643-0.169-1.306,0.107c-5.358,2.23-10.72,4.463-16.079,6.693
						C3.59,8.574,1.931,9.266,0.273,9.955L0.273,9.955z"/>
					<path id="Left_wing_highlights" fill="#FEE63F" d="M0.321,9.971c0.32-0.142,1.808-1.033,2.061-0.865
						C2.583,9.236,2.78,9.369,2.982,9.501c1.053,0.688,2.104,1.379,3.156,2.067c4.07,2.671,8.141,5.341,12.212,8.01
						c10.905,7.15,21.811,14.303,32.716,21.455c3.917,2.568,7.835,5.138,11.752,7.707c0.938,0.613,1.874,1.229,2.812,1.844
						c0.479,0.314,0.721,0.261,1.331,0.258c10.332-0.044,20.666-0.088,30.998-0.133h0.24c-0.498,0.365-0.905,0.85-1.527,0.902
						c-0.7,0.062-1.4,0.125-2.103,0.188c-2.712,0.242-5.423,0.484-8.135,0.728c-5.938,0.529-11.874,1.059-17.812,1.586
						c-0.51,0.047-1.662,0.398-2.121,0.094c-0.717-0.479-1.432-0.956-2.146-1.434c-3.523-2.356-7.05-4.713-10.576-7.068
						c-10.793-7.214-21.586-14.428-32.379-21.643c-6.95-4.646-13.9-9.293-20.854-13.938C0.472,10.072,0.396,10.021,0.321,9.971
						L0.321,9.971z"/>
				</g>
				<g id="Right_wing_1_" transform="translate(0.000000, 4.000000)">
					<path id="Right_wing" fill="#FADF20" d="M60.308,43.805c-6.274-5.248-12.551-10.496-18.826-15.744
						c-9.227-7.717-18.454-15.434-27.682-23.15c-1.081-0.903-2.162-1.807-3.242-2.711c-0.202-0.168-0.404-0.337-0.604-0.505
						C9.635,1.427,7.727,1.993,7.307,2.054C6.375,2.193,6.416,2.135,6.059,2.951C5.56,4.095,5.061,5.238,4.562,6.382
						C3.323,9.22,2.085,12.06,0.846,14.899C0.68,15.277,0.144,16.047,0.2,16.477c0.062,0.485-0.007,2.111,0.355,2.416
						c0.731,0.614,1.463,1.23,2.196,1.845c3.848,3.233,7.693,6.467,11.543,9.7c9.217,7.746,18.434,15.492,27.649,23.237
						c0.952,0.8,1.905,1.601,2.857,2.401c0.571,0.48,1.582-0.869,2.05-1.252c4.353-3.563,8.705-7.126,13.058-10.689
						C60.043,44.023,60.176,43.914,60.308,43.805L60.308,43.805z"/>
					<path id="Right_wing_highlight" fill="#FEE63F" d="M46.825,54.795c-6.646-5.47-13.289-10.941-19.934-16.411
						c-8.489-6.991-16.979-13.98-25.468-20.971c-0.411-0.338-0.822-0.676-1.233-1.015c0.074,0.567,0.147,1.133,0.223,1.699
						c0.021,0.158-0.01,0.664,0.123,0.775c0.216,0.18,0.431,0.361,0.646,0.542c1.177,0.989,2.354,1.978,3.531,2.967
						c4.342,3.649,8.685,7.298,13.025,10.947c8.628,7.25,17.256,14.501,25.883,21.75c0.428,0.357,0.853,0.717,1.278,1.074
						C45.325,56.512,46.456,55.107,46.825,54.795L46.825,54.795z"/>
					<path id="Right_wing_highlight_1_" fill="#FEE63F" d="M0.509,18.852C3.646,13.124,6.784,7.396,9.923,1.667
						C8.941,1.812,7.962,1.957,6.98,2.102c-0.613,0.091-0.578,0.06-0.812,0.6C5.316,4.651,4.468,6.599,3.616,8.548
						c-0.958,2.194-1.916,4.389-2.873,6.583L0.19,16.397c-0.1,0.231,0.114,0.888,0.146,1.133
						C0.394,17.969,0.453,18.411,0.509,18.852L0.509,18.852z"/>
					<path id="Right_wing_highligh" fill="#FEE63F" d="M59.451,44.432c-6.268-4.988-12.532-9.979-18.8-14.967
						c-9.635-7.671-19.27-15.341-28.902-23.012c-1.786-1.422-3.57-2.842-5.355-4.264c1.159-0.17,2.317-0.342,3.477-0.513
						c0.131-0.02,0.297,0.192,0.39,0.271c0.928,0.776,1.854,1.552,2.784,2.328c3.897,3.26,7.797,6.521,11.694,9.782
						c9.67,8.087,19.34,16.174,29.01,24.259c2.188,1.83,4.376,3.66,6.562,5.49C60.022,44.014,59.736,44.223,59.451,44.432
						L59.451,44.432z"/>
				</g>
				<path id="Back_panel" fill="#FEE63F" d="M120.412,39.348c-1.278-3.715-2.379-7.549-3.893-11.175
					c-2.164-5.183-4.327-10.365-6.489-15.548c-0.889-2.129-1.775-4.257-2.667-6.386c-0.271-0.655-0.173-0.68,0.155-1.397
					c0.268-0.579,0.531-1.157,0.796-1.735c0.133-0.292,1.05-0.63,1.32-0.787c1.021-0.6,1.635-1.062,2.791-1.139
					c0.772-0.05,1.549-0.101,2.321-0.152c0.138-0.008,1.232-0.193,1.314-0.085c0.827,1.1,1.654,2.199,2.481,3.298
					c3.783,5.029,7.569,10.058,11.355,15.087c1.218,1.619,2.438,3.238,3.655,4.857c0.296,0.392,0.35,0.658,0.479,1.163
					c0.188,0.735,0.375,1.47,0.562,2.205c0.077,0.303,0.369,0.903,0.257,1.211c-0.147,0.409-0.404,1.871-0.755,2.089
					c-0.32,0.199-0.644,0.398-0.961,0.598c-1.697,1.052-3.396,2.105-5.092,3.158C125.504,36.188,122.959,37.768,120.412,39.348
					L120.412,39.348z"/>
				<g id="Body_1_" transform="translate(29.000000, 21.000000)">
					<path id="Body" fill="#FADF20" d="M46.329,19.809c9.529-2.457,19.062-4.914,28.592-7.37c4.645-1.197,9.289-2.394,13.933-3.591
						c3.401-0.876,6.646-2.554,9.891-3.875c0.771-0.314,1.561-1.18,2.22-1.679c0.79-0.6,1.581-1.199,2.37-1.797
						c0.299,0.452,0.599,0.903,0.896,1.355c0.233,0.354,0.698,0.826,0.799,1.244c0.286,1.191,0.571,2.382,0.857,3.573
						c0.082,0.345-0.438,1.231-0.557,1.563c-0.104,0.29-0.123,0.558-0.381,0.718c-0.854,0.534-1.708,1.068-2.562,1.603
						c-3.307,2.065-6.712,4.018-9.906,6.248c-9.221,6.438-18.44,12.874-27.661,19.311c-3.159,2.207-6.321,4.414-9.48,6.621
						c-0.848,0.592-1.93,0.953-2.857,1.397l-8.405,4.026c-2.579,1.234-5.157,2.471-7.736,3.705c-0.939,0.451-1.722,0.787-2.721,1.05
						c-5.531,1.452-11.065,2.903-16.599,4.356c-0.303,0.077-1.072,0.443-1.387,0.359c-0.729-0.195-1.459-0.393-2.188-0.586
						c-2.997-0.805-5.991-1.605-8.985-2.411c-0.237-0.062-1.828-0.299-1.91-0.544c-0.366-1.08-0.731-2.16-1.097-3.238
						c-0.222-0.652-0.441-1.307-0.662-1.959c-0.107-0.318-0.49-0.963-0.417-1.24c0.037-0.146,0.457-0.398,0.565-0.493
						c0.519-0.448,1.032-0.896,1.548-1.343c1.218-1.057,2.437-2.11,3.652-3.166c0.522-0.455,1.005-1.045,1.674-1.252
						c1.5-0.465,3.188-0.735,4.533-1.567c4.028-2.491,8.056-4.983,12.084-7.476C31.727,28.837,39.027,24.322,46.329,19.809
						L46.329,19.809z"/>
					<path id="Body_lowlight" fill="#AD9A32" d="M36.681,52.771c0.313-0.912,0.627-1.826,0.939-2.737
						c0.183-0.528,0.38-1.956,0.888-2.257c0.638-0.375,1.511-1.163,2.236-1.297c0.627-0.113,1.256-0.229,1.883-0.346
						c4.188-0.77,8.38-1.537,12.568-2.309C49.025,46.809,42.853,49.791,36.681,52.771L36.681,52.771z"/>
				</g>
				<path id="Back" fill="#EFD32F" d="M116.383,30.209c2.161-0.909,4.32-1.817,6.479-2.725c1.656-0.696,3.66-1.227,5.169-2.214
					c4.313-2.823,8.629-5.646,12.943-8.467c0.696-0.457,1.729-0.491,2.534-0.674c-0.068,0.801,0.052,1.263-0.521,1.778
					c-0.77,0.691-1.538,1.383-2.307,2.073c-2.397,2.156-4.795,4.312-7.192,6.469c-0.967,0.869-1.935,1.738-2.898,2.608
					c-0.185,0.163-0.861,0.998-1.121,1.004c-2.381,0.051-4.76,0.103-7.143,0.154c-1.393,0.03-2.784,0.061-4.178,0.09
					C117.842,30.313,116.474,30.527,116.383,30.209L116.383,30.209z"/>
				<g id="Windshield_1_" transform="translate(40.000000, 40.000000)">
					<path id="Windshield" fill="#3D3D3D" d="M0.805,22.158c1.896,1.683,3.794,3.365,5.69,5.048
						c0.687,0.608,0.716,0.824,1.587,0.653c1.516-0.293,3.031-0.588,4.549-0.883c1.318-0.257,2.317-0.658,3.557-1.194
						c2.623-1.134,5.246-2.269,7.868-3.403c4.611-1.996,9.223-3.99,13.834-5.986c0.297-0.127-0.789-4.611-0.867-5.028
						c-0.562-3.017-1.129-6.03-1.692-9.046c-0.091-0.486-0.184-0.975-0.273-1.461c-4.739,1.847-9.479,3.691-14.218,5.537
						c-1.12,0.438-1.759,0.731-2.669,1.48c-2.072,1.705-4.146,3.409-6.218,5.113C8.237,16.046,4.521,19.104,0.805,22.158
						L0.805,22.158z"/>
					<path id="Windshield_Highlight" fill="#9B9A9A" d="M26.584,11.749c1.438-0.254,2.881-0.509,4.32-0.763
						c-0.448-0.487-0.896-0.976-1.347-1.461c-0.441-0.479-0.594-0.922-1.24-0.801c-0.842,0.157-0.785,0.146-1.051,0.948
						C27.041,10.366,26.811,11.057,26.584,11.749L26.584,11.749z"/>
					<path id="Windshield_Highlight_1_" fill="#4A494A" d="M0.805,22.158c0.394,0.354,1.256,1.572,1.767,1.264
						c0.813-0.488,1.625-0.977,2.438-1.466c2.738-1.647,5.476-3.295,8.214-4.94c1.189-0.718,2.82-1.353,3.771-2.39
						c1.861-2.028,3.724-4.058,5.585-6.087c1.303-1.42,2.605-2.842,3.908-4.262c-2.307,0.873-4.612,1.746-6.921,2.619
						c-1.138,0.43-2.123,1.576-3.046,2.336c-4.667,3.84-9.333,7.678-14,11.517C1.949,21.219,1.378,21.689,0.805,22.158L0.805,22.158
						z"/>
				</g>
				<path id="Nose" fill="#FADF20" d="M29.368,69.648l-3.875,5.629l-0.13,0.14l-0.001,0.108c0.069,0.069,0,0.06,0.069,0.069
					c0.027,0.005,0.054,0.009,0.081,0.013c6.896,1.047,13.79,2.092,20.684,3.139C42.887,73.708,32.677,74.686,29.368,69.648
					L29.368,69.648z"/>
				<g id="Propeller" transform="translate(17.000000, 62.000000)">
					<path id="Shape_11_" fill="#3D3D3D" d="M2.865,2.068c1.632,0.807,3.011,2.043,4.45,3.145C8.439,6.07,9.562,6.93,10.685,7.79
						c0.444,0.34,1.451,0.821,1.646,1.394c-0.864,0.172-0.886,0.01-1.555-0.545C9.753,7.788,8.727,6.938,7.704,6.087
						C6.092,4.747,4.478,3.408,2.865,2.068L2.865,2.068z"/>
					<path id="Shape_12_" fill="#4A494A" d="M10.346,10.549c0.53-0.215,0.744-0.455,1.272-0.201
						c0.481,0.229,0.811,0.535,1.062,1.017c0.229,0.438,0.358,0.905,0.521,1.375c0.13,0.372,0.022,1.271,0.205,1.581
						c0.24,0.412,1.1,0.564,1.474,0.848c1.141,0.865,2.28,1.729,3.422,2.594c2.401,1.82,4.805,3.643,7.208,5.461
						c0.462,0.352,0.912,0.721,1.409,1.021c0.387,0.231,0.746,0.423,1.196,0.477c0.149,0.021,0.47-0.549,0.347-0.667
						c-3.803-3.65-7.604-7.303-11.407-10.953c-0.609-0.584-1.218-1.172-1.827-1.756c-0.549-0.527-0.525-1.441-1.217-1.973
						c-0.892-0.684-0.889-0.229-1.795-0.588c-0.687-0.271-2.199-0.897-2.751-1.354c-1.964-1.619-3.93-3.24-5.896-4.857
						c-0.496-0.41-0.96-0.627-1.579-0.836c-0.38-0.127-1.689-0.457-0.976,0.207C4.104,4.802,7.262,7.689,10.346,10.549
						L10.346,10.549z"/>
					<path id="Shape_13_" fill="#3D3D3D" d="M14.336,14.893c2.937,3.121,6.345,6.063,9.924,8.449
						c0.835,0.559,1.849,1.446,2.858,1.631c0.28,0.051,1.39-0.221,1.145-0.486c-0.052-0.055-0.34-0.301-0.399-0.344
						c-2.221-1.549-4.422-3.168-6.642-4.718c-2.103-1.467-4.231-2.838-6.354-4.297c-0.027-0.021-0.145-0.091-0.188-0.108
						C14.578,14.975,14.401,14.938,14.336,14.893L14.336,14.893z"/>
				</g>
			</g>
		</g>
	</g>
</g>
<g id="Layer_2">
	
		<text transform="matrix(0.9579 0 -0.0872 0.9962 243.7722 104.0918)" stroke="#FD280C" stroke-width="2" stroke-miterlimit="10" font-family="'SinkinSans-900XBlackItalic'" font-size="66.8142">sonex</text>
	<text transform="matrix(0.9615 0 0 1 355.6965 207)" font-family="'SinkinSans-900XBlackItalic'" font-size="66.56">in europe</text>
	<g>
		<line fill="none" x1="351.03" y1="132" x2="763.018" y2="132"/>
		<path fill="#333694" d="M351.03,132c0,0,1.609-0.089,4.627-0.257c3.019-0.142,7.443-0.405,13.076-0.633
			c5.633-0.242,12.472-0.564,20.318-0.823c7.845-0.287,16.697-0.614,26.353-0.859c9.656-0.28,20.117-0.583,31.182-0.774
			c11.062-0.219,22.73-0.498,34.802-0.605c12.069-0.126,24.542-0.352,37.215-0.406c12.674-0.046,25.549-0.093,38.423-0.14
			c12.875,0.044,25.749,0.089,38.424,0.133c12.674,0.042,25.146,0.279,37.216,0.403c12.069,0.109,23.736,0.377,34.802,0.603
			c5.532,0.12,10.913,0.235,16.118,0.348c5.205,0.148,10.233,0.291,15.062,0.428c9.656,0.247,18.508,0.57,26.354,0.862
			c7.846,0.261,14.686,0.583,20.317,0.827c5.633,0.229,10.059,0.493,13.075,0.636c3.019,0.169,4.627,0.259,4.627,0.259
			s-1.608,0.09-4.627,0.259c-3.018,0.145-7.442,0.407-13.075,0.636c-5.633,0.245-12.473,0.566-20.317,0.827
			c-7.846,0.292-16.696,0.615-26.354,0.862c-4.828,0.137-9.856,0.28-15.062,0.428c-5.205,0.112-10.586,0.228-16.118,0.348
			c-11.064,0.226-22.731,0.494-34.802,0.603c-12.07,0.124-24.542,0.361-37.216,0.403c-12.675,0.044-25.549,0.089-38.424,0.133
			c-12.874-0.047-25.749-0.094-38.423-0.14c-12.673-0.054-25.146-0.28-37.215-0.406c-12.07-0.107-23.738-0.386-34.802-0.605
			c-11.064-0.192-21.525-0.495-31.182-0.774c-9.655-0.245-18.507-0.572-26.353-0.859c-7.847-0.259-14.686-0.582-20.318-0.823
			c-5.633-0.228-10.058-0.491-13.076-0.633C352.639,132.089,351.03,132,351.03,132z"/>
	</g>
</g>
</svg>
