<?xml version="1.0" encoding="UTF-8" standalone="no"?>
<svg width="377px" height="311px" viewBox="0 0 377 311" version="1.1" xmlns="http://www.w3.org/2000/svg" xmlns:xlink="http://www.w3.org/1999/xlink" xmlns:sketch="http://www.bohemiancoding.com/sketch/ns">
    <!-- Generator: Sketch 3.3.2 (12043) - http://www.bohemiancoding.com/sketch -->
    <title>logo</title>
    <desc>Created with Sketch.</desc>
    <defs></defs>
    <g id="Page-1" stroke="none" stroke-width="1" fill="none" fill-rule="evenodd" sketch:type="MSPage">
        <g id="logo" sketch:type="MSLayerGroup">
            <g id="Background_rectangle" fill="#FFFFFF" sketch:type="MSShapeGroup">
                <rect id="Rectangle-path" x="0" y="0" width="377" height="310.334"></rect>
            </g>
            <g id="Globe" transform="translate(17.000000, 18.000000)" fill="#333694" sketch:type="MSShapeGroup">
                <circle id="Oval" cx="136.972" cy="136.696" r="136"></circle>
            </g>
            <g id="Europe" transform="translate(48.000000, 44.000000)" fill="#FFFFFF" sketch:type="MSShapeGroup">
                <path d="M27.103,10.878 C27.1,11.877 27.098,12.878 27.094,13.878 C28.609,13.849 29.614,11.873 31.091,11.87 C31.102,17.626 34.07,9.471 34.081,14.864 C35.457,14.862 41.051,12.583 41.115,15.865 C45.005,15.928 41.993,25.918 37.103,25.857 C37.114,25.181 28.209,26.878 26.089,26.864 C26.149,24.781 20.014,21.217 20.121,18.922 C25.896,18.823 20.127,14.014 20.124,12.906 C23.534,12.919 25.082,15.995 25.073,10.911 C23.426,10.901 22.129,10.404 22.1,8.902 C26.153,8.87 24.592,6.941 27.096,6.892 C27.097,7.673 30.356,10.966 27.103,10.878 C27.099,11.878 27.186,10.88 27.103,10.878 L27.103,10.878 Z" id="Iceland_x3F__2_"></path>
                <path d="M49.194,66.834 C49.257,63.879 56.164,64.605 56.237,67.84 C51.586,67.849 57.219,68.803 51.218,68.85 C51.181,70.514 51.221,70.12 51.224,71.788 C61.006,71.925 55.055,79.784 51.283,79.871 C51.265,80.294 56.162,84.833 56.219,84.833 C56.238,88.291 60.646,94.875 57.254,94.832 C57.255,95.806 58.268,96.799 59.243,96.844 C59.248,99.797 57.326,98.69 57.266,100.801 C63.006,100.79 57.816,99.831 62.264,99.822 C62.267,101.389 65.953,104.773 61.274,104.823 C61.34,106.823 58.31,106.847 58.314,108.829 C62.48,108.858 59.275,110.36 59.304,111.827 C58.272,111.474 57.939,111.819 58.306,112.86 C52.414,112.814 57.863,110.846 53.303,110.854 C53.249,114.243 42.346,107.344 42.289,111.86 C40.193,111.803 42.364,110.911 40.271,110.818 C40.315,108.255 36.495,110.86 35.287,110.844 C35.274,104.602 49.384,110.297 49.257,103.832 C45.994,103.867 47.569,105.864 44.26,105.842 C44.33,103.386 40.738,102.867 38.286,102.854 C38.323,100.5 41.199,101.942 41.296,99.864 C45.511,99.855 43.228,97.697 43.256,95.845 C47.624,95.836 42.601,94.879 48.27,94.835 C48.251,93.096 51.213,90.86 49.23,90.864 C49.224,87.789 50.193,88.191 50.189,85.863 C48.21,85.836 46.268,84.162 46.22,85.871 C45.219,85.856 44.218,84.845 44.216,83.828 C46.35,83.824 44.114,82.806 46.231,82.84 C46.186,77.254 45.352,80.841 43.242,80.846 C43.238,78.703 48.713,74.866 44.215,74.875 C44.199,74.037 48.428,67.855 49.201,67.819" id="UK_2_"></path>
                <path d="M23.249,99.9 C23.246,98.284 23.358,96.9 21.258,96.904 C21.253,94.395 22.3,97.686 22.237,93.903 C25.311,93.951 23.783,91.914 27.263,91.877 C27.211,89.212 26.214,92.986 26.242,88.879 C23.961,88.883 27.247,85.872 27.232,83.893 C28.178,83.908 29.231,84.846 29.251,85.827 C32.593,85.9 30.878,83.871 34.216,83.863 C34.195,82.83 30.011,80.888 35.226,80.878 C35.274,83.314 40.155,79.113 40.23,82.852 C42.448,82.914 43.508,88.908 38.257,88.887 C38.228,93.016 35.246,94.949 35.293,98.846 C31.869,98.95 27.412,99.933 23.249,99.9 C23.248,99.574 23.499,99.903 23.249,99.9 L23.249,99.9 Z" id="Ireland_2_"></path>
                <path d="M172.239,10.606 C175.635,10.658 177.244,13.889 177.284,17.565 C173.508,17.572 176.769,16.597 174.266,16.601 C174.259,13.161 171.619,17.582 171.284,17.576 C171.218,19.67 168.355,22.319 168.251,24.598 C169.296,24.644 174.274,28.649 174.277,29.57 C172.57,29.58 165.357,30.829 165.275,28.619 C163.192,28.623 165.409,27.664 163.273,27.608 C163.297,30.748 164.278,30.248 164.283,32.621 C168.405,32.613 167.345,31.442 167.305,35.632 C165.811,35.608 164.298,32.427 164.306,36.606 C162.977,36.585 162.294,33.942 162.313,32.672 C159.246,32.625 158.047,26.603 156.286,26.637 C156.17,23.526 149.239,24.336 149.274,20.651 C153.976,20.67 153.503,22.643 159.277,22.632 C159.282,24.917 165.186,21.637 166.275,21.602 C166.294,19.782 168.294,20.435 168.269,18.613 C172.663,18.605 167.267,13.174 167.273,12.631 C163.828,12.577 162.869,9.636 158.267,9.617 C158.09,6.018 146.786,7.669 144.247,7.645 C144.268,5.469 145.231,7.841 145.228,5.643 C143.526,5.646 137.292,10.339 137.228,5.675 C138.187,5.656 142.597,2.664 139.237,2.671 C139.195,-0.332 135.923,3.678 135.255,3.679 C135.18,-0.142 136.223,3.183 136.218,0.662 C132.437,0.703 131.237,9.802 131.222,2.687 C125.225,2.699 129.78,8.629 126.218,8.697 C126.3,2.275 120.292,11.791 121.286,11.722 C121.925,9.403 120.918,8.735 118.267,9.718 C118.273,13.302 116.129,13.254 116.28,16.701 C109.125,16.799 113.567,27.577 105.302,27.765 C105.171,33.574 98.748,44.679 93.335,44.789 C93.291,47.179 91.427,47.751 89.32,47.755 C89.324,49.836 90.25,47.725 90.303,49.753 C82.483,49.769 85.252,54.378 85.34,57.762 C83.323,57.807 82.343,59.29 82.345,60.81 C85.251,60.804 84.27,60.845 86.304,60.802 C86.371,63.696 84.404,62.571 84.353,64.702 C82.168,64.894 85.317,68.436 85.342,69.743 C77.659,69.946 87.467,77.53 87.352,74.76 C91.553,74.751 91.254,69.858 95.362,69.764 C95.441,60.32 96.924,69.681 99.341,69.777 C99.369,72.46 94.378,74.765 100.35,74.754 C100.7,80.022 103.367,86.273 103.428,91.68 C105.408,91.767 107.353,88.751 108.407,88.718 C108.401,85.664 111.279,87.739 112.42,87.757 C112.3,85.176 115.409,81.922 115.356,78.736 C116.234,78.778 114.353,73.441 114.361,73.706 C116.694,73.722 117.371,73.052 117.386,70.715 C119.549,70.812 117.184,71.7 119.388,71.758 C119.368,70.687 119.691,67.7 120.395,67.678 C120.317,65.37 119.383,65.541 119.352,61.727 C117.287,61.694 119.393,62.659 117.37,62.7 C117.387,61.699 116.359,60.731 115.382,60.689 C115.326,54.635 117.346,57.966 117.366,52.763 C114.15,52.525 120.34,47.657 120.339,46.726 C121.477,46.703 125.312,42.852 125.345,41.7 C123.652,41.734 128.267,31.746 128.265,30.72 C130.782,30.774 133.222,32.69 136.248,32.684 C136.235,34.944 129.142,46.673 127.36,46.722 C127.328,48.212 126.085,54.744 129.314,54.678 C129.332,55.937 127.142,58.703 129.301,58.74 C129.336,63.104 133.296,58.936 133.375,64.67 C139.678,64.768 143.781,56.178 149.359,56.743 C149.38,59.249 152.247,59.609 154.282,59.671 C154.49,61.561 143.304,68.28 143.376,64.609 C136.376,64.767 137.438,67.764 137.371,72.663 C138.186,72.695 142.491,74.62 139.375,74.68 C139.322,80.126 141.303,80.051 135.448,79.667 C135.327,74.909 130.987,80.704 130.387,80.719 C130.356,82.95 130.657,91.673 130.429,91.678 C130.255,94.885 126.087,96.636 122.438,96.567 C122.094,91.475 115.761,97.703 114.315,97.729 C114.44,102.397 104.698,98.69 104.462,98.666 C104.248,94.195 97.398,99.701 95.401,99.725 C95.425,97.712 93.265,93.741 91.463,93.723 C91.495,89.648 94.133,89.593 94.447,85.842 C96.409,85.635 94.363,86.717 96.355,86.713 C96.373,85.402 95.791,82.747 94.316,82.749 C95.263,81.552 95.938,80.217 96.339,78.745 C90.525,78.757 83.535,91.953 90.365,91.726 C90.44,94.219 89.476,94.92 89.439,97.806 C91.71,97.846 86.559,106.512 86.414,100.781 C83.433,100.548 84.851,101.741 80.439,101.785 C78.128,101.807 76.47,105.727 76.412,107.801 C73.477,107.718 75.439,105.532 75.436,103.802 C75.038,103.803 66.45,113.078 66.454,112.82 C59.332,112.834 63.172,117.696 56.464,117.855 C56.398,122.845 49.485,116.869 47.478,116.873 C47.481,118.997 48.418,120.786 48.457,122.809 C43.16,122.867 42.054,119.949 36.483,119.879 C36.45,122.024 37.413,119.805 37.455,121.83 C32.247,121.964 40.065,126.877 42.497,126.852 C42.505,130.647 41.573,127.358 41.503,129.869 C45.175,129.898 46.535,138.494 46.544,142.843 C44.274,142.783 46.8,141.77 44.543,141.879 C44.473,146.807 42.559,146.464 42.498,150.867 C41.108,150.869 36.464,153.202 36.512,149.879 C32.826,149.887 28.012,146.92 23.522,146.889 C23.528,146.474 13.366,140.641 13.502,144.878 C6.096,145.066 12.456,157.851 6.581,157.965 C6.502,160.521 3.12,167.035 0.557,166.935 C0.56,168.848 1.528,169.117 1.606,170.975 C4.655,170.941 1.534,176.433 1.537,177.933 C9.852,178.157 13.094,182.78 13.64,187.951 C15.275,187.928 16.623,187.451 16.595,185.904 C20.837,185.906 23.16,186.878 26.587,186.896 C32.463,186.926 32.265,184.85 38.614,184.901 C38.608,182.014 43.059,178.864 41.581,178.833 C41.569,172.937 45.519,174.345 45.562,169.825 C48.561,169.883 59.557,164.774 59.568,161.839 C60.156,161.798 60.524,158.655 60.559,156.838 C63.532,156.832 66.96,155.762 69.454,155.841 C69.741,162.525 73.636,156.93 77.538,156.763 C77.535,156.929 86.57,150.647 86.52,153.797 C91.624,153.641 89.699,161.875 92.506,161.785 C92.572,163.143 99.784,170.733 101.57,170.783 C101.573,172.741 107.587,171.573 107.593,174.74 C109.547,174.754 112.538,181.5 112.597,176.73 C114.385,176.76 114.33,182.778 116.562,182.707 C116.629,186.521 113.577,187.443 113.581,189.755 C117.521,189.747 115.924,184.696 120.613,184.74 C120.544,183.138 120.537,182.284 120.563,180.719 C116.204,180.585 118.567,178.292 118.615,175.703 C121.647,175.797 123.515,178.522 125.558,178.689 C125.51,173.839 121.631,175.785 121.567,172.76 C120.255,172.703 117.599,171.993 117.542,170.684 C111.965,170.651 115.532,169.818 115.579,167.75 C109.368,167.712 103.549,163.42 103.537,157.691 C101.247,157.669 97.616,152.774 100.487,152.769 C100.481,149.479 97.089,146.775 102.507,146.765 C102.655,141.496 107.748,150.764 106.577,150.695 C106.385,144.74 112.422,153.716 112.536,153.714 C112.866,154.703 112.534,155.032 111.538,154.7 C111.56,155.915 115.47,158.737 116.561,158.754 C116.525,156.873 123.539,162.979 123.54,163.692 C128.304,163.765 130.52,169.902 130.559,172.726 C128.354,172.69 133.569,177.994 133.572,179.688 C137.837,179.642 134.563,182.623 139.563,182.692 C139.877,183.644 139.55,183.958 138.58,183.631 C138.601,186.163 141.518,187.306 141.645,184.718 C144.198,184.694 147.526,185.16 147.62,187.644 C146.184,187.638 141.59,185.457 141.62,187.657 C137.73,187.721 140.056,190.732 141.642,190.656 C141.573,192.812 140.694,190.576 140.599,192.674 C142.226,192.671 143.639,197.104 143.63,192.668 C146.457,192.712 144.067,196.638 146.638,196.677 C146.627,190.989 147.663,195.646 150.621,195.685 C150.589,193.388 146.597,192.384 146.624,189.662 C150.701,189.618 146.574,190.662 150.61,190.654 C150.544,188.884 148.658,189.457 148.589,187.658 C150.857,187.692 148.412,186.697 150.634,186.654 C150.618,188.199 151.983,188.668 153.607,188.679 C153.6,184.994 149.438,183.64 145.597,183.648 C145.614,181.861 148.591,180.746 148.587,178.642 C146.433,178.684 142.572,172.581 146.544,172.646 C146.616,176.257 147.561,173.284 147.565,175.675 C150.647,175.617 149.616,172.832 149.557,171.655 C151.179,171.652 162.579,167.101 162.586,170.63 C164.055,170.601 165.628,168.36 165.594,166.671 C170.364,166.662 173.377,164.655 173.553,169.656 C171.736,169.538 169.486,170.635 167.571,170.605 C167.566,168.35 154.361,179.631 163.584,179.612 C163.579,177.183 162.609,180.301 162.558,176.614 C164.97,176.61 166.642,180.957 166.549,182.607 C160.704,182.701 165.54,183.609 167.53,183.605 C167.649,187.694 172.623,189.059 172.626,190.553 C171.026,190.607 169.606,191.065 169.609,192.6 C172.907,192.593 178.367,186.408 178.651,192.561 C181.702,192.699 184.612,193.615 184.601,187.57 C190.282,187.592 201.758,193.914 201.613,183.558 C207.901,183.545 206.251,182.332 209.612,182.542 C209.618,185.522 208.676,186.441 208.582,188.544 C214.219,188.609 218.349,185.578 222.139,181.783 C223.696,180.224 224.177,178.202 225.472,176.2 C227.08,173.715 228.381,170.742 229.639,167.783 C234.086,157.325 238.633,145.888 240.306,136.075 C243.609,116.703 243.338,109.197 241.223,92.7 C239.691,80.763 237.192,72.598 233.806,63.7 C232.538,60.367 231.017,56.499 229.306,52.867 C227.595,49.234 225.444,45.586 223.306,41.617 C220.78,36.927 218.914,34.287 215.973,30.45 C213.032,26.613 209.845,21.66 205.471,17.366 C200.187,12.178 189.281,1.419 186.721,1.201 C186.387,1.19 172.344,7.458 172.239,10.606 L172.239,10.606 Z" id="Mainland_2_"></path>
                <path d="M103.458,189.686 C103.416,188.748 102.405,187.743 101.437,187.762 C101.446,191.976 99.499,187.473 99.446,191.798 C103.739,191.727 106.971,196.814 111.487,196.727 C111.386,186.303 112.56,189.721 103.458,189.686 C103.444,189.366 103.875,189.686 103.458,189.686 L103.458,189.686 Z" id="IDK_2_"></path>
                <path d="M81.423,183.749 C86.686,183.846 85.496,180.932 85.412,177.782 C87.733,177.722 85.428,176.768 85.45,175.782 C90.774,175.724 85.423,172.008 85.398,170.762 C83.523,170.798 82.672,171.809 80.4,171.812 C80.442,175.692 81.232,172.248 81.406,174.77 C79.085,174.87 82.354,177.652 82.456,178.788 C79.202,178.74 81.42,181.963 81.423,183.749 C82.097,183.761 81.423,183.588 81.423,183.749 L81.423,183.749 Z" id="_x3F__x3F__x3F__4_"></path>
                <path d="M83.417,168.808 C85.507,168.79 83.293,169.82 85.403,169.778 C85.414,168.151 87.346,166.775 85.397,166.778 C85.412,165.77 86.4,164.776 87.408,164.775 C87.404,162.317 86.394,165.532 86.387,161.761 C84.631,161.796 82.408,164.104 82.41,165.816 C83.409,165.454 83.738,165.787 83.397,166.814 C81.08,166.818 83.384,167.773 83.417,168.808 C83.739,168.806 83.414,168.723 83.417,168.808 L83.417,168.808 Z" id="_x3F__x3F__x3F__1_"></path>
                <path d="M155.438,200.624 C155.461,202.372 164.561,200.603 166.464,200.618 C166.472,205.064 155.546,202.639 152.468,202.646 C152.462,199.331 151.638,200.564 155.438,200.624 C155.442,200.957 155.354,200.622 155.438,200.624 L155.438,200.624 Z" id="Dunno_2_"></path>
                <path d="M193.505,197.548 C196.01,197.624 201.412,197.896 201.402,192.533 C199.489,192.536 193.362,195.201 193.505,197.548 C193.807,197.557 193.5,197.465 193.505,197.548 L193.505,197.548 Z" id="Shape"></path>
                <path d="M97.257,88.754 C97.22,91.68 99.291,90.671 99.234,92.782 C101.279,92.743 101.244,89.579 101.224,87.762 C98.387,87.685 102.886,88.71 97.257,88.754 C97.249,89.41 97.506,88.752 97.257,88.754 L97.257,88.754 Z" id="Shape"></path>
                <path d="M94.26,89.775 C94.256,90.765 94.254,91.754 94.251,92.744 C96.575,92.74 96.577,89.73 94.26,89.775 C94.255,90.765 94.343,89.774 94.26,89.775 L94.26,89.775 Z" id="Shape"></path>
                <path d="M54.399,175.855 C54.374,176.766 56.572,177.858 57.403,177.879 C57.397,174.677 58.232,175.5 54.399,175.855 C54.39,176.188 54.485,175.847 54.399,175.855 L54.399,175.855 Z" id="Shape"></path>
                <path d="M61.426,173.841 C60.687,175.821 61.355,176.477 63.43,175.806 C63.399,174.837 62.361,173.839 61.426,173.841 C61.396,174.487 61.507,173.841 61.426,173.841 L61.426,173.841 Z" id="Shape"></path>
                <path d="M119.221,80.695 C119.223,81.699 120.196,82.649 121.204,82.754 C121.299,77.427 122.39,84.925 122.192,76.732 C119.333,76.737 121.753,80.69 119.221,80.695 C119.221,81.028 119.305,80.695 119.221,80.695 L119.221,80.695 Z" id="Shape"></path>
                <path d="M44.177,68.844 C44.219,71.044 43.218,68.7 43.222,70.846 C45.417,70.815 46.524,68.787 44.177,68.844 C44.183,69.184 44.263,68.842 44.177,68.844 L44.177,68.844 Z" id="Shape"></path>
                <path d="M43.19,64.845 C43.193,66.803 42.257,64.83 42.131,66.848 C45.756,66.841 47.193,67.107 47.187,63.838 C43.139,63.928 47.163,64.885 43.19,64.845 C43.19,65.158 43.352,64.848 43.19,64.845 L43.19,64.845 Z" id="Shape"></path>
                <path d="M45.218,68.822 C44.545,68.83 43.871,68.838 43.197,68.846 C43.219,70.465 43.696,71.823 45.203,71.884 C45.208,70.862 45.213,69.842 45.218,68.822 C44.545,68.831 45.217,69.077 45.218,68.822 L45.218,68.822 Z" id="Shape"></path>
                <path d="M56.186,62.861 C55.545,64.735 56.199,65.4 58.148,64.857 C58.187,63.841 57.235,62.841 56.186,62.861 C56.179,63.486 56.271,62.859 56.186,62.861 L56.186,62.861 Z" id="Shape"></path>
                <path d="M63.157,58.764 C61.843,58.525 61.511,59.212 62.162,60.829 C63.371,60.877 67.86,56.87 63.174,56.786 C63.169,57.445 63.163,58.104 63.157,58.764 C62.832,58.786 63.159,58.599 63.157,58.764 L63.157,58.764 Z" id="Shape"></path>
            </g>
            <g id="Plane" transform="translate(188.000000, 119.000000)" sketch:type="MSShapeGroup">
                <path d="M55.07,75.568 C56.893,77.333 58.716,79.096 60.539,80.86 C61.109,81.411 61.958,81.912 62.051,82.722 C62.133,83.433 62.237,83.48 61.688,83.895 C61.139,84.311 60.591,84.727 60.042,85.143 C59.914,85.24 60.296,86.593 60.332,86.786 C60.441,87.366 61.034,87.525 61.522,87.827 C61.688,87.929 62.224,87.75 62.404,87.723 C63.189,87.609 63.974,87.495 64.758,87.382 C65.511,87.272 66.264,87.163 67.017,87.053 C67.346,87.006 67.861,87.03 68.166,86.887 C68.931,86.527 69.697,85.539 70.325,84.986 C71.842,83.651 73.359,82.315 74.875,80.979 C74.005,80.42 73.134,79.862 72.264,79.304 C71.44,78.776 71.41,78.635 70.518,78.91 C69.217,79.313 67.915,79.715 66.615,80.118 C66.383,80.19 64.576,80.943 64.404,80.78 C62.774,79.228 61.143,77.676 59.512,76.123 C59.358,75.976 58.151,74.595 57.952,74.658 C56.992,74.961 56.031,75.265 55.07,75.568 L55.07,75.568 Z" id="Thingy" fill="#FEE63F"></path>
                <g id="Left_wing_1_" transform="translate(62.000000, 64.000000)">
                    <path d="M0.274,9.289 C6.245,13.278 12.215,17.268 18.187,21.257 C29.064,28.525 39.943,35.793 50.821,43.06 C54.801,45.72 58.783,48.38 62.764,51.04 C63.814,51.74 64.863,52.441 65.911,53.142 C66.312,53.411 66.502,53.636 66.973,53.594 C76.929,52.706 86.883,51.819 96.838,50.93 C97.381,50.882 97.938,50.236 98.355,49.928 C99.38,49.176 100.407,48.422 101.431,47.668 C100.811,46.85 100.42,46.17 99.57,45.67 C98.608,45.105 97.649,44.541 96.69,43.976 C92.928,41.765 89.168,39.552 85.406,37.34 C74.251,30.778 63.094,24.215 51.937,17.653 C43.041,12.42 34.144,7.187 25.248,1.953 C24.375,1.44 23.503,0.927 22.631,0.414 C22.064,0.081 21.99,0.245 21.326,0.522 C15.967,2.753 10.607,4.985 5.247,7.216 C3.59,7.908 1.932,8.599 0.274,9.289 L0.274,9.289 Z" id="Left_wing" fill="#FADF20"></path>
                    <path d="M0.322,9.305 C0.642,9.163 2.128,8.272 2.381,8.439 C2.582,8.57 2.781,8.702 2.982,8.834 C4.034,9.523 5.086,10.213 6.138,10.903 C10.208,13.572 14.279,16.242 18.35,18.911 C29.255,26.063 40.16,33.214 51.066,40.366 C54.983,42.935 58.901,45.504 62.818,48.073 C63.756,48.688 64.692,49.302 65.63,49.917 C66.111,50.232 66.351,50.178 66.961,50.175 C77.293,50.131 87.627,50.087 97.959,50.042 L98.201,50.042 C97.703,50.407 97.294,50.891 96.672,50.945 C95.972,51.007 95.272,51.07 94.571,51.133 C91.859,51.375 89.148,51.617 86.436,51.859 C80.499,52.388 74.562,52.918 68.624,53.446 C68.115,53.492 66.961,53.845 66.502,53.539 C65.787,53.061 65.072,52.583 64.356,52.105 C60.832,49.749 57.306,47.393 53.78,45.037 C42.987,37.823 32.194,30.609 21.401,23.394 C14.45,18.748 7.499,14.102 0.547,9.456 C0.473,9.406 0.397,9.355 0.322,9.305 L0.322,9.305 Z" id="Left_wing_highlights" fill="#FEE63F"></path>
                </g>
                <g id="Right_wing_1_" transform="translate(0.000000, 4.000000)">
                    <path d="M60.309,43.139 C54.034,37.891 47.758,32.643 41.483,27.395 C32.256,19.678 23.029,11.961 13.801,4.245 C12.72,3.342 11.639,2.438 10.559,1.534 C10.357,1.366 10.155,1.197 9.954,1.029 C9.635,0.761 7.728,1.327 7.307,1.388 C6.374,1.527 6.415,1.469 6.059,2.285 C5.56,3.429 5.061,4.572 4.562,5.716 C3.323,8.554 2.084,11.394 0.846,14.233 C0.68,14.611 0.144,15.381 0.2,15.811 C0.263,16.296 0.194,17.922 0.556,18.227 C1.288,18.841 2.019,19.457 2.752,20.072 C6.6,23.305 10.447,26.539 14.295,29.772 C23.512,37.518 32.729,45.263 41.946,53.009 C42.898,53.809 43.851,54.61 44.803,55.41 C45.375,55.89 46.385,54.541 46.853,54.158 C51.205,50.595 55.558,47.032 59.91,43.469 C60.043,43.357 60.176,43.248 60.309,43.139 L60.309,43.139 Z" id="Right_wing" fill="#FADF20"></path>
                    <path d="M46.825,54.129 C40.18,48.659 33.536,43.188 26.892,37.718 C18.403,30.727 9.913,23.738 1.424,16.747 C1.013,16.409 0.602,16.071 0.191,15.732 C0.265,16.299 0.338,16.865 0.413,17.431 C0.433,17.589 0.404,18.095 0.536,18.206 C0.751,18.386 0.966,18.567 1.181,18.748 C2.358,19.737 3.535,20.726 4.712,21.715 C9.054,25.364 13.397,29.013 17.739,32.662 C26.366,39.912 34.994,47.163 43.621,54.412 C44.048,54.77 44.473,55.129 44.9,55.486 C45.325,55.846 46.457,54.441 46.825,54.129 L46.825,54.129 Z" id="Right_wing_highlight" fill="#FEE63F"></path>
                    <path d="M0.509,18.186 C3.647,12.458 6.785,6.73 9.923,1.001 C8.942,1.146 7.962,1.291 6.981,1.436 C6.367,1.527 6.403,1.496 6.169,2.036 C5.318,3.985 4.468,5.933 3.617,7.882 C2.659,10.076 1.701,12.271 0.744,14.465 L0.192,15.731 C0.092,15.962 0.306,16.619 0.338,16.864 C0.395,17.303 0.453,17.745 0.509,18.186 L0.509,18.186 Z" id="Right_wing_highlight_1_" fill="#FEE63F"></path>
                    <path d="M59.451,43.766 C53.184,38.777 46.918,33.787 40.652,28.799 C31.017,21.128 21.382,13.458 11.748,5.787 C9.962,4.365 8.178,2.945 6.393,1.523 C7.552,1.353 8.71,1.181 9.869,1.01 C9.999,0.99 10.165,1.202 10.258,1.28 C11.186,2.056 12.114,2.832 13.042,3.608 C16.941,6.868 20.839,10.129 24.738,13.39 C34.407,21.477 44.077,29.564 53.746,37.65 C55.934,39.48 58.122,41.31 60.31,43.14 C60.023,43.348 59.737,43.557 59.451,43.766 L59.451,43.766 Z" id="Right_wing_highligh" fill="#FEE63F"></path>
                </g>
                <path d="M120.413,38.681 C119.133,34.967 118.033,31.133 116.52,27.507 C114.356,22.324 112.193,17.142 110.031,11.959 C109.142,9.83 108.254,7.702 107.364,5.573 C107.092,4.918 107.191,4.893 107.519,4.176 C107.786,3.597 108.05,3.019 108.315,2.441 C108.448,2.149 109.365,1.811 109.635,1.654 C110.656,1.054 111.27,0.592 112.426,0.515 C113.199,0.465 113.975,0.414 114.748,0.363 C114.885,0.355 115.981,0.17 116.063,0.278 C116.89,1.378 117.717,2.477 118.544,3.576 C122.329,8.605 126.115,13.634 129.901,18.663 C131.119,20.282 132.338,21.901 133.556,23.52 C133.852,23.912 133.906,24.178 134.035,24.683 C134.223,25.418 134.41,26.153 134.597,26.888 C134.674,27.191 134.966,27.791 134.854,28.099 C134.707,28.508 134.45,29.97 134.099,30.188 C133.779,30.387 133.457,30.586 133.138,30.786 C131.441,31.838 129.743,32.891 128.046,33.944 C125.504,35.522 122.959,37.102 120.413,38.681 L120.413,38.681 Z" id="Back_panel" fill="#FEE63F"></path>
                <g id="Body_1_" transform="translate(29.000000, 21.000000)">
                    <path d="M46.329,19.142 C55.859,16.685 65.39,14.229 74.92,11.773 C79.565,10.576 84.209,9.379 88.853,8.182 C92.254,7.306 95.498,5.628 98.744,4.307 C99.515,3.993 100.303,3.127 100.962,2.628 C101.752,2.028 102.543,1.429 103.333,0.831 C103.631,1.283 103.931,1.734 104.229,2.186 C104.462,2.54 104.927,3.012 105.028,3.43 C105.314,4.621 105.599,5.812 105.885,7.003 C105.967,7.348 105.449,8.234 105.33,8.566 C105.226,8.856 105.207,9.124 104.949,9.284 C104.095,9.818 103.241,10.352 102.387,10.887 C99.082,12.952 95.675,14.905 92.481,17.135 C83.26,23.573 74.04,30.009 64.82,36.446 C61.66,38.653 58.498,40.86 55.338,43.066 C54.491,43.657 53.409,44.02 52.481,44.464 L44.075,48.49 C41.496,49.725 38.917,50.961 36.338,52.196 C35.399,52.646 34.617,52.982 33.618,53.245 C28.086,54.697 22.552,56.149 17.02,57.601 C16.717,57.68 15.948,58.046 15.633,57.962 C14.904,57.766 14.174,57.571 13.445,57.376 C10.448,56.572 7.453,55.769 4.458,54.965 C4.221,54.902 2.63,54.666 2.548,54.421 C2.182,53.341 1.817,52.261 1.452,51.182 C1.231,50.529 1.01,49.876 0.789,49.223 C0.682,48.905 0.299,48.261 0.372,47.982 C0.41,47.836 0.83,47.584 0.939,47.489 C1.456,47.041 1.971,46.594 2.487,46.147 C3.704,45.091 4.922,44.036 6.139,42.98 C6.662,42.526 7.144,41.935 7.813,41.729 C9.313,41.264 11,40.993 12.346,40.161 C16.374,37.67 20.402,35.178 24.43,32.686 C31.728,28.171 39.028,23.656 46.329,19.142 L46.329,19.142 Z" id="Body" fill="#FADF20"></path>
                    <path d="M36.682,52.106 C36.996,51.193 37.309,50.28 37.622,49.368 C37.804,48.84 38.001,47.412 38.509,47.112 C39.147,46.736 40.02,45.948 40.746,45.815 C41.373,45.701 42.001,45.585 42.628,45.47 C46.818,44.7 51.008,43.931 55.198,43.161 C49.026,46.143 42.854,49.125 36.682,52.106 L36.682,52.106 Z" id="Body_lowlight" fill="#AD9A32"></path>
                </g>
                <path d="M116.383,29.543 C118.544,28.634 120.705,27.726 122.864,26.818 C124.52,26.122 126.524,25.591 128.033,24.604 C132.346,21.781 136.662,18.958 140.976,16.137 C141.672,15.68 142.706,15.646 143.51,15.463 C143.442,16.264 143.562,16.726 142.99,17.241 C142.22,17.932 141.452,18.624 140.683,19.314 C138.286,21.47 135.888,23.626 133.491,25.783 C132.524,26.652 131.556,27.521 130.591,28.391 C130.408,28.554 129.73,29.389 129.47,29.395 C127.089,29.446 124.71,29.498 122.329,29.549 C120.936,29.579 119.543,29.61 118.151,29.639 C117.842,29.647 116.475,29.861 116.383,29.543 L116.383,29.543 Z" id="Back" fill="#EFD32F"></path>
                <g id="Windshield_1_" transform="translate(40.000000, 40.000000)">
                    <path d="M0.806,21.492 C2.703,23.175 4.6,24.858 6.497,26.54 C7.183,27.149 7.212,27.364 8.083,27.194 C9.599,26.9 11.115,26.605 12.632,26.311 C13.951,26.055 14.95,25.652 16.189,25.116 C18.812,23.982 21.435,22.847 24.057,21.713 C28.668,19.717 33.28,17.723 37.891,15.727 C38.188,15.599 37.102,11.114 37.024,10.697 C36.46,7.681 35.895,4.667 35.331,1.653 C35.24,1.165 35.148,0.678 35.057,0.191 C30.318,2.037 25.578,3.883 20.839,5.729 C19.719,6.166 19.081,6.46 18.17,7.209 C16.098,8.914 14.025,10.618 11.953,12.322 C8.238,15.38 4.522,18.437 0.806,21.492 L0.806,21.492 Z" id="Windshield" fill="#3D3D3D"></path>
                    <path d="M26.584,11.083 C28.024,10.829 29.465,10.574 30.906,10.32 C30.457,9.833 30.008,9.346 29.559,8.86 C29.117,8.38 28.965,7.938 28.319,8.059 C27.477,8.217 27.533,8.205 27.268,9.008 C27.041,9.7 26.812,10.391 26.584,11.083 L26.584,11.083 Z" id="Windshield_Highlight" fill="#9B9A9A"></path>
                    <path d="M0.806,21.492 C1.199,21.846 2.062,23.064 2.573,22.756 C3.386,22.267 4.198,21.779 5.01,21.29 C7.748,19.643 10.486,17.995 13.224,16.349 C14.414,15.632 16.044,14.997 16.995,13.96 C18.857,11.931 20.718,9.902 22.58,7.873 C23.882,6.453 25.186,5.031 26.489,3.611 C24.182,4.484 21.875,5.357 19.568,6.23 C18.43,6.66 17.445,7.807 16.522,8.567 C11.855,12.406 7.189,16.244 2.522,20.083 C1.949,20.553 1.378,21.023 0.806,21.492 L0.806,21.492 Z" id="Windshield_Highlight_1_" fill="#4A494A"></path>
                </g>
                <path d="M29.368,68.982 L25.493,74.611 L25.364,74.751 L25.363,74.86 C25.432,74.93 25.363,74.919 25.432,74.93 C25.459,74.934 25.486,74.937 25.513,74.941 C32.409,75.988 39.303,77.033 46.197,78.08 C42.888,73.042 32.678,74.019 29.368,68.982 L29.368,68.982 Z" id="Nose" fill="#FADF20"></path>
                <g id="Propeller" transform="translate(17.000000, 62.000000)">
                    <path d="M2.865,1.403 C4.497,2.209 5.875,3.445 7.316,4.547 C8.44,5.405 9.563,6.264 10.686,7.124 C11.13,7.464 12.137,7.946 12.331,8.517 C11.466,8.69 11.446,8.528 10.777,7.973 C9.752,7.122 8.728,6.272 7.704,5.421 C6.092,4.081 4.479,2.742 2.865,1.403 L2.865,1.403 Z" id="Shape" fill="#3D3D3D"></path>
                    <path d="M10.347,9.883 C10.877,9.668 11.091,9.428 11.62,9.681 C12.102,9.911 12.43,10.217 12.682,10.697 C12.911,11.136 13.041,11.604 13.204,12.072 C13.333,12.445 13.227,13.343 13.409,13.654 C13.65,14.067 14.508,14.219 14.882,14.501 C16.023,15.366 17.163,16.231 18.304,17.095 C20.706,18.915 23.109,20.736 25.512,22.555 C25.974,22.906 26.424,23.276 26.921,23.576 C27.308,23.809 27.667,23.999 28.118,24.053 C28.268,24.072 28.587,23.504 28.464,23.386 C24.662,19.734 20.86,16.083 17.057,12.431 C16.448,11.847 15.839,11.261 15.23,10.677 C14.681,10.149 14.704,9.234 14.013,8.704 C13.122,8.022 13.124,8.475 12.218,8.116 C11.532,7.845 10.019,7.219 9.467,6.763 C7.503,5.144 5.538,3.524 3.573,1.905 C3.076,1.495 2.613,1.279 1.993,1.071 C1.614,0.943 0.303,0.613 1.018,1.277 C4.105,4.136 7.263,7.023 10.347,9.883 L10.347,9.883 Z" id="Shape" fill="#4A494A"></path>
                    <path d="M14.336,14.227 C17.273,17.348 20.681,20.29 24.26,22.676 C25.095,23.234 26.109,24.122 27.119,24.306 C27.4,24.357 28.508,24.086 28.263,23.821 C28.211,23.765 27.923,23.519 27.864,23.477 C25.643,21.928 23.442,20.308 21.222,18.759 C19.12,17.292 16.99,15.921 14.868,14.462 C14.84,14.442 14.724,14.371 14.68,14.353 C14.578,14.309 14.402,14.272 14.336,14.227 L14.336,14.227 Z" id="Shape" fill="#3D3D3D"></path>
                </g>
            </g>
        </g>
    </g>
</svg>